#!OML:ASF E:\Style4\Style4.ASF
:FULLY-SPECIFIED
:DEGREES
2340
root 0.578093 16.6933 -0.914127 -0.484079 -2.45026 1.97998
lowerback 14.8182 2.77199 -1.11332
upperback 12.2953 3.4947 1.09102
thorax 4.65666 1.63274 1.4049
lowerneck 5.03213 -4.99636 -6.72866
upperneck -13.546 -6.82117 5.11423
head -4.46281 -3.3545 3.01609
rclavicle -1.47101e-014 -1.11319e-014
rhumerus 38.6252 28.0075 -55.7224
rradius 114.947
rwrist -7.30129
rhand -37.4204 43.3582
rfingers 7.12502
rthumb -10.4802 13.6394
lclavicle -1.47101e-014 -1.11319e-014
lhumerus 46.4244 -33.5249 57.5026
lradius 114.232
lwrist 11.9499
lhand -29.9961 16.1629
lfingers 7.12502
lthumb -3.31365 46.1169
rfemur -27.0584 -6.36547 15.2393
rtibia 56.0106
rfoot -25.2742 -15.9835
rtoes -14.5253
lfemur -25.6749 4.14277 -22.4946
ltibia 54.7267
lfoot -28.1165 9.73265
ltoes -13.8768
2341
root 0.56093 16.7371 -0.897209 -0.406505 -2.49624 2.00813
lowerback 14.6641 2.85531 -1.14919
upperback 12.0173 3.6055 0.979066
thorax 4.43255 1.69442 1.29262
lowerneck 4.99882 -5.0287 -6.51601
upperneck -13.8888 -6.83743 5.12768
head -4.56753 -3.36891 2.99562
rclavicle -6.2816e-014 3.18055e-014
rhumerus 39.4143 26.9829 -55.0487
rradius 114.788
rwrist -8.29439
rhand -37.1413 42.3962
rfingers 7.12502
rthumb -10.2109 12.6641
lclavicle -6.2816e-014 3.18055e-014
lhumerus 47.5606 -32.8512 56.5945
lradius 113.908
lwrist 12.6973
lhand -30.1384 17.0338
lfingers 7.12502
lthumb -3.45108 46.9856
rfemur -26.6538 -6.20132 15.266
rtibia 55.2204
rfoot -25.0581 -16.0387
rtoes -14.8458
lfemur -25.2822 4.13354 -22.4514
ltibia 53.9896
lfoot -27.8227 9.85105
ltoes -14.2697
2342
root 0.544644 16.7812 -0.879562 -0.314788 -2.53375 2.00834
lowerback 14.4851 2.95115 -1.04492
upperback 11.7507 3.74822 0.804965
thorax 4.24758 1.78323 1.036
lowerneck 4.96658 -5.10495 -6.15329
upperneck -14.2557 -6.90056 5.12205
head -4.68322 -3.41312 2.94804
rclavicle 1.59028e-015 3.18055e-015
rhumerus 40.2279 25.8442 -54.4746
rradius 114.51
rwrist -9.34176
rhand -37.0089 41.4608
rfingers 7.12502
rthumb -10.0833 11.7223
lclavicle 1.59028e-015 3.18055e-015
lhumerus 48.8227 -32.2713 55.5714
lradius 113.634
lwrist 13.4933
lhand -30.0934 17.9724
lfingers 7.12502
lthumb -3.40765 47.9249
rfemur -26.2194 -6.03539 15.3047
rtibia 54.3577
rfoot -24.7371 -16.2003
rtoes -15.5509
lfemur -24.8701 4.09021 -22.383
ltibia 53.1839
lfoot -27.4946 9.97349
ltoes -14.5866
2343
root 0.529059 16.8313 -0.860415 -0.219723 -2.57451 1.9219
lowerback 14.0174 3.03674 -0.909562
upperback 11.6674 3.88283 0.747934
thorax 4.41288 1.86117 0.908733
lowerneck 4.93435 -5.17327 -6.09627
upperneck -14.7638 -6.96158 5.27404
head -4.82552 -3.44991 3.00187
rclavicle 4.77083e-015 -1.03368e-014
rhumerus 41.3288 24.6041 -53.6253
rradius 114.133
rwrist -10.2887
rhand -37.1063 40.3888
rfingers 7.12502
rthumb -10.1772 10.655
lclavicle 4.77083e-015 -1.03368e-014
lhumerus 50.1196 -31.4419 54.7641
lradius 113.354
lwrist 14.497
lhand -29.9236 18.7589
lfingers 7.12502
lthumb -3.24369 48.714
rfemur -25.7712 -5.93911 15.4543
rtibia 53.4747
rfoot -24.2519 -16.4285
rtoes -16.5772
lfemur -24.4041 4.02937 -22.2223
ltibia 52.2876
lfoot -27.2538 10.0888
ltoes -14.7058
2344
root 0.51184 16.8887 -0.84125 -0.0661492 -2.59595 1.94673
lowerback 13.7142 3.10929 -0.93253
upperback 11.4096 3.98241 0.667905
thorax 4.29351 1.91476 0.834421
lowerneck 4.93271 -5.20609 -6.07234
upperneck -15.0407 -6.9867 5.37424
head -4.90532 -3.46661 3.03808
rclavicle 1.31198e-014 -3.18055e-015
rhumerus 42.219 23.5113 -52.9333
rradius 113.749
rwrist -11.3093
rhand -37.2301 39.032
rfingers 7.12502
rthumb -10.2966 9.30402
lclavicle 1.31198e-014 -3.18055e-015
lhumerus 51.0783 -30.5978 54.2002
lradius 112.999
lwrist 15.7241
lhand -29.7422 19.2337
lfingers 7.12502
lthumb -3.06852 49.1914
rfemur -25.3816 -5.88983 15.5177
rtibia 52.5959
rfoot -23.9356 -16.4253
rtoes -16.3765
lfemur -23.9474 3.94213 -22.185
ltibia 51.3042
lfoot -26.9553 10.1406
ltoes -14.4751
2345
root 0.494845 16.9481 -0.822428 0.101523 -2.59245 2.05723
lowerback 13.4533 3.20427 -0.945263
upperback 11.1159 4.11358 0.504103
thorax 4.12036 1.98869 0.660847
lowerneck 5.01227 -5.30263 -5.85686
upperneck -15.3347 -7.09051 5.42128
head -5.00879 -3.52958 3.03423
rclavicle -4.13472e-014 6.75868e-015
rhumerus 42.899 22.3052 -52.455
rradius 113.355
rwrist -12.5643
rhand -37.0979 37.6325
rfingers 7.12502
rthumb -10.1691 7.89831
lclavicle -4.13472e-014 6.75868e-015
lhumerus 52.0783 -29.917 53.5642
lradius 112.68
lwrist 17.0965
lhand -29.4301 20.3184
lfingers 7.12502
lthumb -2.76713 50.2802
rfemur -24.9701 -5.87813 15.4822
rtibia 51.7093
rfoot -24.1537 -16.0126
rtoes -14.2571
lfemur -23.4707 3.81347 -22.245
ltibia 50.2536
lfoot -26.4943 10.0978
ltoes -13.7044
2346
root 0.47961 17.0066 -0.803802 0.307841 -2.59117 2.05277
lowerback 13.1665 2.70479 -1.30676
upperback 10.8075 3.42107 0.753594
thorax 3.9132 1.61092 1.19338
lowerneck 5.16364 -4.75512 -7.72601
upperneck -15.6514 -6.47315 5.94179
head -5.08638 -3.15334 3.48405
rclavicle 2.06736e-014 -7.95139e-015
rhumerus 44.9967 22.7193 -51.2035
rradius 112.919
rwrist -14.1951
rhand -37.1569 36.5175
rfingers 7.12502
rthumb -10.2261 6.78605
lclavicle 2.06736e-014 -7.95139e-015
lhumerus 51.4583 -27.7723 53.9317
lradius 112.345
lwrist 18.4031
lhand -28.9539 21.8706
lfingers 7.12502
lthumb -2.30721 51.8379
rfemur -24.5524 -5.84598 15.5633
rtibia 50.7585
rfoot -24.2281 -15.7072
rtoes -12.6562
lfemur -23.0249 3.67735 -22.187
ltibia 49.1744
lfoot -26.0082 10.1758
ltoes -13.4577
